{"title":"The Pretty Reckless - House On A Hill (2014.Rock)","uid":11549467,"size":139578856,"categoryP":"video","categoryS":"music_videos","magnet":"?xt=urn:btih:43ced622e377843d5d67173e9c2e1461680f01a1&amp;dn=The+Pretty+Reckless+-+House+On+A+Hill+%282014.Rock%29&amp;tr=udp%3A%2F%2Ftracker.openbittorrent.com%3A80&amp;tr=udp%3A%2F%2Fopen.demonii.com%3A1337&amp;tr=udp%3A%2F%2Ftracker.coppersurfer.tk%3A6969&amp;tr=udp%3A%2F%2Fexodus.desync.com%3A6969","seeders":7,"leechers":1,"uploader":"MeRaDil","files":-1,"time":1416764704,"description":"THE PRETTY RECKLESS - HOUSE ON A HILL\n\n &lt;a href=&quot;\nhttp://gifyu.com/images/ThePrettyReckless.png&quot; rel=&quot;nofollow&quot; target=&quot;_NEW&quot;&gt;\nhttp://gifyu.com/images/ThePrettyReckless.png&lt;/a&gt;\n\nMPEG4 MUSIC VID\nGeneral\nThe Pretty Reckless - House On a Hill\nFormat                                   : MPEG-4\nFormat profile                           : Base Media\nCodec ID                                 : isom\nFile size                                : 133 MiB\nDuration                                 : 4mn 46s\nOverall bit rate                         : 3 899 Kbps\nMusicVid name                            : House On A Hill\nAlbum                                    : Going To Hell\nPerformer                                : The Pretty Reckless\nGenre                                    : Alternative Rock\nContentType                              : Music Video\nRecorded date                            : 2014\nISRC                                     : The Promo Bay\nCopyright                                : The Pretty Reckless\nCover                                    : Yes\nRating                                   : ***\nMake                                     : MeRaDil\noday                                     : 18-11-2014  USA\nrati                                     : (Binary)\nArtist url                               : http://goingtohell.me\nlabel                                    : Razor &amp; Tie\nrelease                                  : USA . november 18 . 2014\nPart_ID                                  : House On A Hill\n\nVideo\nID                                       : 1\nFormat                                   : AVC\nFormat/Info                              : Advanced Video Codec\nFormat profile                           : &lt;a class=&quot;__cf_email__&quot; href=&quot;/cdn-cgi/l/email-protection&quot; data-cfemail=&quot;6e260709062e225a405e&quot;&gt;[email&amp;#160;protected]&lt;/a&gt;&lt;script cf-hash='f9e31' type=&quot;text/javascript&quot;&gt;\n/* &lt;![CDATA[ */!function(){try{var t=&quot;currentScript&quot;in document?document.currentScript:function(){for(var t=document.getElementsByTagName(&quot;script&quot;),e=t.length;e--;)if(t[e].getAttribute(&quot;cf-hash&quot;))return t[e]}();if(t&amp;&amp;t.previousSibling){var e,r,n,i,c=t.previousSibling,a=c.getAttribute(&quot;data-cfemail&quot;);if(a){for(e=&quot;&quot;,r=parseInt(a.substr(0,2),16),n=2;a.length-n;n+=2)i=parseInt(a.substr(n,2),16)^r,e+=String.fromCharCode(i);e=document.createTextNode(e),c.parentNode.replaceChild(e,c)}}}catch(u){}}();/* ]]&gt; */&lt;/script&gt;\nFormat settings, CABAC                   : Yes\nFormat settings, ReFrames                : 2 frames\nCodec ID                                 : avc1\nCodec ID/Info                            : Advanced Video Coding\nDuration                                 : 4mn 46s\nBit rate                                 : 3 634 Kbps\nWidth                                    : 1 920 pixels\nHeight                                   : 1 080 pixels\nDisplay aspect ratio                     : 16:9\nFrame rate mode                          : Variable\nFrame rate                               : 23.976 fps\nMinimum frame rate                       : 23.974 fps\nMaximum frame rate                       : 23.981 fps\nColor space                              : YUV\nChroma subsampling                       : 4:2:0\nBit depth                                : 8 bits\nScan type                                : Progressive\nBits/(Pixel*Frame)                       : 0.073\nStream size                              : 124 MiB (93%)\n\nAudio\nID                                       : 2\nFormat                                   : AAC\nFormat/Info                              : Advanced Audio Codec\nFormat profile                           : LC\nCodec ID                                 : 40\nDuration                                 : 4mn 46s\nBit rate mode                            : Constant\nBit rate                                 : 256 Kbps\nChannel(s)                               : 2 channels\nChannel positions                        : Front: L R\nSampling rate                            : 44.1 KHz\nCompression mode                         : Lossy\nStream size                              : 8.74 MiB (7%)\n &lt;a href=&quot;\nhttps://thepiratebay.se/user/MeRaDil&quot; rel=&quot;nofollow&quot; target=&quot;_NEW&quot;&gt;\nhttps://thepiratebay.se/user/MeRaDil&lt;/a&gt;\n\nThe Pretty Reckless * Going To Hell * Alternative * Rock * Promo\n\n:)","torrent":{"xt":"urn:btih:43ced622e377843d5d67173e9c2e1461680f01a1","amp;dn":"The+Pretty+Reckless+-+House+On+A+Hill+%282014.Rock%29","amp;tr":["udp%3A%2F%2Ftracker.openbittorrent.com%3A80","udp%3A%2F%2Fopen.demonii.com%3A1337","udp%3A%2F%2Ftracker.coppersurfer.tk%3A6969","udp%3A%2F%2Fexodus.desync.com%3A6969"],"infoHash":"43ced622e377843d5d67173e9c2e1461680f01a1","infoHashBuffer":{"type":"Buffer","data":[67,206,214,34,227,119,132,61,93,103,23,62,156,46,20,97,104,15,1,161]},"announce":[],"urlList":[]}}